<svg fill="none" height="15" viewBox="0 0 15 15" width="15" xmlns="http://www.w3.org/2000/svg"><g clip-rule="evenodd" fill="#151515" fill-rule="evenodd"><path d="m6.79289 7.5-3.14644-3.14645.7071-.7071 3.14645 3.14644 3.1464-3.14644.7072.7071-3.14649 3.14645 3.14649 3.1464-.7072.7072-3.1464-3.14649-3.14645 3.14649-.7071-.7072z"/><path d="m3.64645 3.64645c.19526-.19527.51184-.19527.7071 0l3.14645 3.14644 3.1464-3.14644c.1953-.19527.5119-.19527.7072 0 .1952.19526.1952.51184 0 .7071l-3.14649 3.14645 3.14649 3.1464c.1952.1953.1952.5119 0 .7072-.1953.1952-.5119.1952-.7072 0l-3.1464-3.14649-3.14645 3.14649c-.19526.1952-.51184.1952-.7071 0-.19527-.1953-.19527-.5119 0-.7072l3.14644-3.1464-3.14644-3.14645c-.19527-.19526-.19527-.51184 0-.7071z"/></g></svg>